Coordinates
version=1
nRows=12
nColumns=46
inDegrees=yes

Units are S.I. units (second, meters, Newtons, ...)
Angles are in degrees.

endheader
time	pelvis_tilt	pelvis_list	pelvis_rotation	pelvis_tx	pelvis_ty	pelvis_tz	bb_angle	bb_tx	bb_ty	bb_tz	hip_flexion_r	hip_adduction_r	hip_rotation_r	knee_angle_r	knee_angle_r_beta	ankle_angle_r	subtalar_angle_r	mtp_angle_r	crank_angle_r	hip_flexion_l	hip_adduction_l	hip_rotation_l	knee_angle_l	knee_angle_l_beta	ankle_angle_l	subtalar_angle_l	mtp_angle_l	crank_angle_l	lumbar_extension	lumbar_bending	lumbar_rotation	arm_flex_r	arm_add_r	arm_rot_r	elbow_flex_r	pro_sup_r	wrist_flex_r	wrist_dev_r	arm_flex_l	arm_add_l	arm_rot_l	elbow_flex_l	pro_sup_l	wrist_flex_l	wrist_dev_l
      5.00000000	    -24.24243211	    -12.46689062	     -4.55423530	      0.41244683	      1.06648229	     -0.24306808	      0.00000000	      0.50000000	      0.00000000	      0.25000000	     62.66218892	      6.80755653	     -0.19638495	    109.85097730	      1.91726124	     12.62484258	     10.03119477	      0.00000000	      0.00000000	     38.60935359	    -19.17536819	      0.22234606	     32.96296858	      0.57531233	    -13.41086932	     -0.33715451	      0.00000000	      0.00000000	    -45.09977299	      5.26119581	      1.45509345	     58.88970751	      0.95106959	     27.40166501	     35.83331263	     50.26451420	      0.00000000	      0.00000000	     38.28261154	    -28.26512650	     18.42837722	     74.77861001	     48.42605609	      0.00000000	      0.00000000
      5.00500000	    -24.55111874	    -12.86635691	     -5.67579595	      0.41154128	      1.06593385	     -0.24421417	      0.00000000	      0.50000000	      0.00000000	      0.25000000	     64.44853332	      7.46044954	     -0.16105613	    110.77839452	      1.93344772	     13.02415187	     10.35030027	      0.00000000	      0.00000000	     37.37959938	    -19.87301593	     -0.02829995	     31.81959173	      0.55535664	    -13.81705967	     -0.60059325	      0.00000000	      0.00000000	    -45.17257437	      6.01506976	      2.23540140	     59.37041947	      1.26148414	     27.56837847	     36.07101220	     50.30472320	      0.00000000	      0.00000000	     37.88097863	    -28.58467091	     18.33214172	     74.54479390	     48.38279386	      0.00000000	      0.00000000
      5.01000000	    -24.58947887	    -12.93272187	     -7.09414199	      0.41118171	      1.06593506	     -0.24467766	      0.00000000	      0.50000000	      0.00000000	      0.25000000	     65.91848703	      8.20818946	      0.29830458	    111.67032406	      1.94901483	     13.75008184	     11.53551938	      0.00000000	      0.00000000	     35.63759680	    -20.56314907	     -1.39915879	     30.64840361	      0.53491555	    -15.08524786	     -1.26267358	      0.00000000	      0.00000000	    -45.36468513	      6.18793576	      2.62014642	     59.96235152	      1.84653262	     28.76059369	     35.77024050	     50.39847898	      0.00000000	      0.00000000	     36.70757197	    -29.24814315	     17.34230575	     74.51932206	     48.32628473	      0.00000000	      0.00000000
      5.01500000	    -24.87422610	    -13.26903120	     -8.40016249	      0.41064113	      1.06570289	     -0.24552450	      0.00000000	      0.50000000	      0.00000000	      0.25000000	     67.58611198	      8.94955494	      0.25580464	    112.29629971	      1.95994017	     14.10305962	     11.91002767	      0.00000000	      0.00000000	     34.38727362	    -21.40667851	     -2.40704382	     29.85234845	      0.52102177	    -15.71489669	     -1.45936517	      0.00000000	      0.00000000	    -45.55432489	      6.90407515	      2.63509540	     61.35764460	      2.86851428	     31.58188927	     34.22753446	     50.46550347	      0.00000000	      0.00000000	     34.33510287	    -30.00263169	     14.85684292	     75.87392552	     48.45748383	      0.00000000	      0.00000000
      5.02000000	    -25.03250215	    -13.35545785	     -9.65018275	      0.41014137	      1.06588389	     -0.24617978	      0.00000000	      0.50000000	      0.00000000	      0.25000000	     69.08822253	      9.56515052	      0.37850861	    112.75778757	      1.96799465	     14.38826400	     12.47744128	      0.00000000	      0.00000000	     32.96509926	    -21.99462177	     -3.65531733	     29.07912772	      0.50752652	    -16.30932211	     -1.54747707	      0.00000000	      0.00000000	    -45.77953681	      7.23556320	      3.30257838	     61.74934135	      3.28118252	     31.75831481	     34.38463088	     50.48675068	      0.00000000	      0.00000000	     33.75311035	    -30.30169438	     14.59559597	     75.54605245	     48.40305974	      0.00000000	      0.00000000
      5.02500000	    -25.15957925	    -13.50576232	    -10.81658065	      0.40968159	      1.06626721	     -0.24689208	      0.00000000	      0.50000000	      0.00000000	      0.25000000	     70.47002917	     10.13714080	      0.32857160	    113.03253560	      1.97278991	     14.62697708	     12.90825548	      0.00000000	      0.00000000	     31.61162438	    -22.61029589	     -4.87670857	     28.48969109	      0.49723891	    -16.85909109	     -1.52537237	      0.00000000	      0.00000000	    -46.13693245	      7.64651126	      3.95986915	     62.14412314	      3.70508318	     31.90029881	     34.60185558	     50.52122247	      0.00000000	      0.00000000	     33.14410677	    -30.53128084	     14.28919450	     75.23367098	     48.34119087	      0.00000000	      0.00000000
      5.03000000	    -25.47641895	    -13.52086464	    -12.00359735	      0.40919557	      1.06674320	     -0.24763331	      0.00000000	      0.50000000	      0.00000000	      0.25000000	     71.96991603	     10.58816476	      0.21927666	    113.07544604	      1.97353884	     14.87033036	     13.18305400	      0.00000000	      0.00000000	     30.45407685	    -23.04950303	     -5.95347219	     27.88552187	      0.48669417	    -17.22885737	     -1.23605021	      0.00000000	      0.00000000	    -46.37269266	      7.94876166	      4.66477883	     62.67624409	      3.99242407	     31.94993638	     34.89888511	     50.55772219	      0.00000000	      0.00000000	     32.49150761	    -30.82485114	     13.89442720	     74.79440887	     48.24729564	      0.00000000	      0.00000000
      5.03500000	    -25.40574490	    -13.32805768	    -13.52994489	      0.40928289	      1.06788095	     -0.24750096	      0.00000000	      0.50000000	      0.00000000	      0.25000000	     72.97940587	     11.47719627	      0.50441857	    113.00041697	      1.97222933	     15.05338410	     13.37252986	      0.00000000	      0.00000000	     28.71096024	    -23.61784499	     -8.27399015	     27.63838376	      0.48238080	    -17.38986959	     -0.44931720	      0.00000000	      0.00000000	    -46.98763464	      7.76215843	      4.89662100	     62.96151003	      5.02190292	     32.22224775	     34.97444373	     50.52432231	      0.00000000	      0.00000000	     30.69564127	    -30.41631889	     10.63850482	     75.38164533	     48.16083659	      0.00000000	      0.00000000
      5.04000000	    -25.55940782	    -13.07733659	    -14.72017516	      0.40905806	      1.06875693	     -0.24798138	      0.00000000	      0.50000000	      0.00000000	      0.25000000	     74.14161276	     11.96379289	      0.56113295	    112.73383785	      1.96757665	     15.18849810	     13.39937698	      0.00000000	      0.00000000	     27.49244911	    -23.83416212	     -9.81359911	     27.48154444	      0.47964343	    -17.53662276	     -0.06566021	      0.00000000	      0.00000000	    -47.30130034	      7.72806558	      5.25806756	     63.22451665	      5.50710253	     32.30313782	     35.20120015	     50.55047553	      0.00000000	      0.00000000	     30.10176288	    -30.59581482	     10.33262581	     75.09519673	     48.10966903	      0.00000000	      0.00000000
      5.04500000	    -25.66083066	    -12.76695993	    -15.89040762	      0.40918561	      1.06995891	     -0.24805535	      0.00000000	      0.50000000	      0.00000000	      0.25000000	     75.02315324	     12.56431785	      0.67173118	    112.27230220	      1.95952133	     15.58007609	     13.14296296	      0.00000000	      0.00000000	     26.23140151	    -24.02245755	    -11.46069008	     27.43915136	      0.47890354	    -17.35571348	      0.96591529	      0.00000000	      0.00000000	    -47.80380155	      7.62809805	      5.26344376	     63.51739322	      6.59919989	     31.89191421	     35.39076656	     50.37024615	      0.00000000	      0.00000000	     29.07040890	    -30.30437650	      8.47164953	     75.88960314	     48.22631147	      0.00000000	      0.00000000
      5.05000000	    -25.84603040	    -12.42858663	    -16.45932605	      0.40899026	      1.07105618	     -0.24927826	      0.00000000	      0.50000000	      0.00000000	      0.25000000	     75.88339178	     12.43125119	      0.51196490	    111.60796224	      1.94792641	     15.92061322	     13.00447058	      0.00000000	      0.00000000	     25.57085154	    -23.74921530	    -11.83578234	     27.65195936	      0.48261774	    -17.32535807	      1.04317801	      0.00000000	      0.00000000	    -48.13202851	      7.85507340	      5.33575766	     63.70855662	      6.84491340	     31.93327885	     35.54473277	     50.39343386	      0.00000000	      0.00000000	     28.94670768	    -30.15759467	      8.58283098	     75.82401152	     48.22979055	      0.00000000	      0.00000000
      5.05500000	    -25.94926331	    -12.17758733	    -17.73633542	      0.40938103	      1.07251097	     -0.24890809	      0.00000000	      0.50000000	      0.00000000	      0.25000000	     76.43874931	     13.21180736	      0.36751893	    110.76188772	      1.93315963	     16.43802700	     12.14774220	      0.00000000	      0.00000000	     24.46370517	    -24.14809128	    -13.81310759	     28.07555282	      0.49001084	    -16.78696217	      2.41801301	      0.00000000	      0.00000000	    -48.58153444	      7.63146131	      5.89904728	     63.80413150	      7.31023942	     31.68633341	     36.31108847	     50.42517813	      0.00000000	      0.00000000	     28.09250154	    -29.77016943	      6.78414181	     74.91502949	     47.97770841	      0.00000000	      0.00000000
